<svg width="17" height="11" viewBox="0 0 17 11" fill="none" xmlns="http://www.w3.org/2000/svg">
<path d="M14.4707 1.72707C14.4707 0.899239 13.7205 0.221924 12.8035 0.221924H10.3027V1.72707H12.8035V3.72138L9.9026 6.99507H6.96834V3.23221H3.63395C1.7917 3.23221 0.299561 4.57932 0.299561 6.2425V8.50022H1.96676C1.96676 9.74949 3.08378 10.7579 4.46755 10.7579C5.85132 10.7579 6.96834 9.74949 6.96834 8.50022H10.7029L14.4707 4.24819V1.72707ZM4.46755 9.25279C4.00907 9.25279 3.63395 8.91413 3.63395 8.50022H5.30115C5.30115 8.91413 4.92603 9.25279 4.46755 9.25279Z" fill="black"/>
<path d="M6.96829 0.974487H2.80029V2.47961H6.96829V0.974487Z" fill="black"/>
<path d="M14.4708 6.24243C13.087 6.24243 11.97 7.25087 11.97 8.50014C11.97 9.7494 13.087 10.7578 14.4708 10.7578C15.8545 10.7578 16.9716 9.7494 16.9716 8.50014C16.9716 7.25087 15.8545 6.24243 14.4708 6.24243ZM14.4708 9.25271C14.0123 9.25271 13.6372 8.91405 13.6372 8.50014C13.6372 8.08622 14.0123 7.74757 14.4708 7.74757C14.9292 7.74757 15.3044 8.08622 15.3044 8.50014C15.3044 8.91405 14.9292 9.25271 14.4708 9.25271Z" fill="black"/>
</svg>
